<svg xmlns="http://www.w3.org/2000/svg" xmlns:xlink="http://www.w3.org/1999/xlink" width="40" zoomAndPan="magnify" viewBox="0 0 30 30.000001" height="40" preserveAspectRatio="xMidYMid meet" version="1.0"><defs><clipPath id="152c687221"><path d="M 0.484375 8 L 29.515625 8 L 29.515625 12 L 0.484375 12 Z M 0.484375 8 " clip-rule="nonzero"/></clipPath><clipPath id="faa32d5f95"><path d="M 0.484375 13 L 29.515625 13 L 29.515625 16 L 0.484375 16 Z M 0.484375 13 " clip-rule="nonzero"/></clipPath><clipPath id="ca27c9dc6c"><path d="M 0.484375 17 L 29.515625 17 L 29.515625 21 L 0.484375 21 Z M 0.484375 17 " clip-rule="nonzero"/></clipPath><clipPath id="778b8e3c53"><path d="M 6 26 L 24 26 L 24 29.03125 L 6 29.03125 Z M 6 26 " clip-rule="nonzero"/></clipPath><clipPath id="54db9c0901"><path d="M 6 0.0742188 L 24 0.0742188 L 24 3 L 6 3 Z M 6 0.0742188 " clip-rule="nonzero"/></clipPath><clipPath id="efbec4ec2a"><path d="M 0.484375 11 L 29.515625 11 L 29.515625 14 L 0.484375 14 Z M 0.484375 11 " clip-rule="nonzero"/></clipPath><clipPath id="1ab119c7f9"><path d="M 0.484375 15 L 29.515625 15 L 29.515625 18 L 0.484375 18 Z M 0.484375 15 " clip-rule="nonzero"/></clipPath><clipPath id="860f7e2351"><path d="M 0.484375 0.0742188 L 17 0.0742188 L 17 16 L 0.484375 16 Z M 0.484375 0.0742188 " clip-rule="nonzero"/></clipPath><clipPath id="1ebb964298"><path d="M 9 0.0742188 L 12 0.0742188 L 12 3 L 9 3 Z M 9 0.0742188 " clip-rule="nonzero"/></clipPath><clipPath id="e6bf77d936"><path d="M 13 0.0742188 L 16 0.0742188 L 16 3 L 13 3 Z M 13 0.0742188 " clip-rule="nonzero"/></clipPath></defs><g clip-path="url(#152c687221)"><path fill="#ac2037" d="M 0.851562 11.367188 L 29.148438 11.367188 C 28.964844 10.546875 28.710938 9.753906 28.398438 8.988281 L 1.605469 8.988281 C 1.289062 9.753906 1.035156 10.546875 0.851562 11.367188 " fill-opacity="1" fill-rule="nonzero"/></g><g clip-path="url(#faa32d5f95)"><path fill="#ac2037" d="M 0.496094 14.589844 C 0.496094 14.988281 0.511719 15.386719 0.542969 15.777344 L 29.457031 15.777344 C 29.488281 15.386719 29.503906 14.988281 29.503906 14.589844 C 29.503906 14.1875 29.488281 13.789062 29.457031 13.398438 L 0.542969 13.398438 C 0.511719 13.789062 0.496094 14.1875 0.496094 14.589844 " fill-opacity="1" fill-rule="nonzero"/></g><g clip-path="url(#ca27c9dc6c)"><path fill="#ac2037" d="M 1.605469 20.1875 L 28.398438 20.1875 C 28.710938 19.421875 28.964844 18.628906 29.148438 17.808594 L 0.851562 17.808594 C 1.035156 18.628906 1.289062 19.421875 1.605469 20.1875 " fill-opacity="1" fill-rule="nonzero"/></g><path fill="#ac2037" d="M 4.453125 24.59375 L 25.546875 24.59375 C 26.230469 23.867188 26.839844 23.070312 27.363281 22.214844 L 2.640625 22.214844 C 3.164062 23.070312 3.773438 23.867188 4.453125 24.59375 " fill-opacity="1" fill-rule="nonzero"/><path fill="#ac2037" d="M 2.640625 6.960938 L 27.363281 6.960938 C 26.839844 6.105469 26.230469 5.308594 25.546875 4.582031 L 4.453125 4.582031 C 3.773438 5.308594 3.164062 6.105469 2.640625 6.960938 " fill-opacity="1" fill-rule="nonzero"/><g clip-path="url(#778b8e3c53)"><path fill="#ac2037" d="M 6.816406 26.625 C 8.800781 27.988281 11.136719 28.871094 13.660156 29.105469 L 16.339844 29.105469 C 18.863281 28.871094 21.203125 27.988281 23.183594 26.625 L 6.816406 26.625 " fill-opacity="1" fill-rule="nonzero"/></g><g clip-path="url(#54db9c0901)"><path fill="#ac2037" d="M 23.183594 2.550781 C 21.203125 1.1875 18.863281 0.304688 16.339844 0.0703125 L 13.664062 0.0703125 C 11.136719 0.304688 8.800781 1.1875 6.816406 2.550781 L 23.183594 2.550781 " fill-opacity="1" fill-rule="nonzero"/></g><path fill="#ffffff" d="M 4.453125 4.582031 L 25.546875 4.582031 C 24.835938 3.824219 24.042969 3.140625 23.183594 2.550781 L 6.816406 2.550781 C 5.957031 3.140625 5.167969 3.824219 4.453125 4.582031 " fill-opacity="1" fill-rule="nonzero"/><path fill="#ffffff" d="M 1.605469 8.988281 L 28.398438 8.988281 C 28.105469 8.285156 27.757812 7.605469 27.363281 6.960938 L 2.640625 6.960938 C 2.242188 7.605469 1.898438 8.285156 1.605469 8.988281 " fill-opacity="1" fill-rule="nonzero"/><g clip-path="url(#efbec4ec2a)"><path fill="#ffffff" d="M 0.542969 13.398438 L 29.457031 13.398438 C 29.402344 12.707031 29.296875 12.03125 29.148438 11.367188 L 0.851562 11.367188 C 0.703125 12.03125 0.601562 12.707031 0.542969 13.398438 " fill-opacity="1" fill-rule="nonzero"/></g><g clip-path="url(#1ab119c7f9)"><path fill="#ffffff" d="M 0.851562 17.808594 L 29.148438 17.808594 C 29.296875 17.148438 29.402344 16.46875 29.457031 15.777344 L 0.542969 15.777344 C 0.601562 16.46875 0.703125 17.148438 0.851562 17.808594 " fill-opacity="1" fill-rule="nonzero"/></g><path fill="#ffffff" d="M 2.640625 22.214844 L 27.363281 22.214844 C 27.757812 21.570312 28.105469 20.894531 28.398438 20.1875 L 1.605469 20.1875 C 1.898438 20.894531 2.246094 21.570312 2.640625 22.214844 " fill-opacity="1" fill-rule="nonzero"/><path fill="#ffffff" d="M 6.816406 26.625 L 23.183594 26.625 C 24.042969 26.035156 24.835938 25.351562 25.546875 24.59375 L 4.453125 24.59375 C 5.167969 25.351562 5.957031 26.035156 6.816406 26.625 " fill-opacity="1" fill-rule="nonzero"/><g clip-path="url(#860f7e2351)"><path fill="#22325e" d="M 16.292969 0.0703125 L 13.664062 0.0703125 C 6.28125 0.75 0.496094 6.992188 0.496094 14.589844 C 0.496094 14.988281 0.511719 15.386719 0.542969 15.777344 L 16.292969 15.777344 L 16.292969 0.0703125 " fill-opacity="1" fill-rule="nonzero"/></g><path fill="#ffffff" d="M 2.71875 13.453125 L 2.960938 13.945312 L 3.503906 14.027344 L 3.109375 14.410156 L 3.203125 14.953125 L 2.71875 14.699219 L 2.230469 14.953125 L 2.324219 14.410156 L 1.929688 14.027344 L 2.472656 13.945312 L 2.71875 13.453125 " fill-opacity="1" fill-rule="nonzero"/><path fill="#ffffff" d="M 2.71875 10.3125 L 2.960938 10.808594 L 3.503906 10.886719 L 3.109375 11.273438 L 3.203125 11.816406 L 2.71875 11.558594 L 2.230469 11.816406 L 2.324219 11.273438 L 1.929688 10.886719 L 2.472656 10.808594 L 2.71875 10.3125 " fill-opacity="1" fill-rule="nonzero"/><path fill="#ffffff" d="M 3.203125 7.171875 L 3.445312 7.667969 L 3.988281 7.746094 L 3.59375 8.132812 L 3.6875 8.675781 L 3.203125 8.417969 L 2.71875 8.675781 L 2.808594 8.132812 L 2.417969 7.746094 L 2.960938 7.667969 L 3.203125 7.171875 " fill-opacity="1" fill-rule="nonzero"/><path fill="#ffffff" d="M 4.722656 11.949219 L 4.964844 12.445312 L 5.507812 12.523438 L 5.117188 12.910156 L 5.207031 13.453125 L 4.722656 13.195312 L 4.238281 13.453125 L 4.332031 12.910156 L 3.9375 12.523438 L 4.480469 12.445312 L 4.722656 11.949219 " fill-opacity="1" fill-rule="nonzero"/><path fill="#ffffff" d="M 4.722656 8.8125 L 4.964844 9.304688 L 5.507812 9.386719 L 5.117188 9.769531 L 5.207031 10.3125 L 4.722656 10.054688 L 4.238281 10.3125 L 4.332031 9.769531 L 3.9375 9.386719 L 4.480469 9.304688 L 4.722656 8.8125 " fill-opacity="1" fill-rule="nonzero"/><path fill="#ffffff" d="M 4.722656 5.671875 L 4.964844 6.164062 L 5.507812 6.246094 L 5.117188 6.628906 L 5.207031 7.171875 L 4.722656 6.917969 L 4.238281 7.171875 L 4.332031 6.628906 L 3.9375 6.246094 L 4.480469 6.164062 L 4.722656 5.671875 " fill-opacity="1" fill-rule="nonzero"/><path fill="#ffffff" d="M 6.667969 13.453125 L 6.910156 13.945312 L 7.453125 14.027344 L 7.0625 14.410156 L 7.15625 14.953125 L 6.667969 14.699219 L 6.183594 14.953125 L 6.277344 14.410156 L 5.882812 14.027344 L 6.425781 13.945312 L 6.667969 13.453125 " fill-opacity="1" fill-rule="nonzero"/><path fill="#ffffff" d="M 6.667969 10.3125 L 6.910156 10.808594 L 7.453125 10.886719 L 7.0625 11.273438 L 7.15625 11.816406 L 6.667969 11.558594 L 6.183594 11.816406 L 6.277344 11.273438 L 5.882812 10.886719 L 6.425781 10.808594 L 6.667969 10.3125 " fill-opacity="1" fill-rule="nonzero"/><path fill="#ffffff" d="M 6.667969 7.171875 L 6.910156 7.667969 L 7.453125 7.746094 L 7.0625 8.132812 L 7.15625 8.675781 L 6.667969 8.417969 L 6.183594 8.675781 L 6.277344 8.132812 L 5.882812 7.746094 L 6.425781 7.667969 L 6.667969 7.171875 " fill-opacity="1" fill-rule="nonzero"/><path fill="#ffffff" d="M 6.667969 4.035156 L 6.910156 4.527344 L 7.453125 4.609375 L 7.0625 4.992188 L 7.15625 5.535156 L 6.667969 5.28125 L 6.183594 5.535156 L 6.277344 4.992188 L 5.882812 4.609375 L 6.425781 4.527344 L 6.667969 4.035156 " fill-opacity="1" fill-rule="nonzero"/><path fill="#ffffff" d="M 8.675781 11.949219 L 8.917969 12.445312 L 9.460938 12.523438 L 9.066406 12.910156 L 9.160156 13.453125 L 8.675781 13.195312 L 8.191406 13.453125 L 8.28125 12.910156 L 7.890625 12.523438 L 8.433594 12.445312 L 8.675781 11.949219 " fill-opacity="1" fill-rule="nonzero"/><path fill="#ffffff" d="M 8.675781 8.8125 L 8.917969 9.304688 L 9.460938 9.386719 L 9.066406 9.769531 L 9.160156 10.3125 L 8.675781 10.054688 L 8.191406 10.3125 L 8.28125 9.769531 L 7.890625 9.386719 L 8.433594 9.304688 L 8.675781 8.8125 " fill-opacity="1" fill-rule="nonzero"/><path fill="#ffffff" d="M 8.675781 5.671875 L 8.917969 6.164062 L 9.460938 6.246094 L 9.066406 6.628906 L 9.160156 7.171875 L 8.675781 6.917969 L 8.191406 7.171875 L 8.28125 6.628906 L 7.890625 6.246094 L 8.433594 6.164062 L 8.675781 5.671875 " fill-opacity="1" fill-rule="nonzero"/><path fill="#ffffff" d="M 8.675781 2.53125 L 8.917969 3.027344 L 9.460938 3.105469 L 9.066406 3.492188 L 9.160156 4.035156 L 8.675781 3.777344 L 8.191406 4.035156 L 8.28125 3.492188 L 7.890625 3.105469 L 8.433594 3.027344 L 8.675781 2.53125 " fill-opacity="1" fill-rule="nonzero"/><path fill="#ffffff" d="M 10.621094 13.453125 L 10.863281 13.945312 L 11.40625 14.027344 L 11.011719 14.410156 L 11.105469 14.953125 L 10.621094 14.699219 L 10.136719 14.953125 L 10.226562 14.410156 L 9.835938 14.027344 L 10.378906 13.945312 L 10.621094 13.453125 " fill-opacity="1" fill-rule="nonzero"/><path fill="#ffffff" d="M 10.621094 10.3125 L 10.863281 10.808594 L 11.40625 10.886719 L 11.011719 11.273438 L 11.105469 11.816406 L 10.621094 11.558594 L 10.136719 11.816406 L 10.226562 11.273438 L 9.835938 10.886719 L 10.378906 10.808594 L 10.621094 10.3125 " fill-opacity="1" fill-rule="nonzero"/><path fill="#ffffff" d="M 10.621094 7.171875 L 10.863281 7.667969 L 11.40625 7.746094 L 11.011719 8.132812 L 11.105469 8.675781 L 10.621094 8.417969 L 10.136719 8.675781 L 10.226562 8.132812 L 9.835938 7.746094 L 10.378906 7.667969 L 10.621094 7.171875 " fill-opacity="1" fill-rule="nonzero"/><path fill="#ffffff" d="M 10.621094 4.035156 L 10.863281 4.527344 L 11.40625 4.609375 L 11.015625 4.992188 L 11.105469 5.535156 L 10.621094 5.28125 L 10.136719 5.535156 L 10.226562 4.992188 L 9.835938 4.609375 L 10.378906 4.527344 L 10.621094 4.035156 " fill-opacity="1" fill-rule="nonzero"/><g clip-path="url(#1ebb964298)"><path fill="#ffffff" d="M 10.621094 0.894531 L 10.863281 1.390625 L 11.40625 1.46875 L 11.011719 1.851562 L 11.105469 2.398438 L 10.621094 2.140625 L 10.136719 2.398438 L 10.226562 1.851562 L 9.835938 1.46875 L 10.378906 1.390625 L 10.621094 0.894531 " fill-opacity="1" fill-rule="nonzero"/></g><path fill="#ffffff" d="M 12.625 11.949219 L 12.871094 12.445312 L 13.414062 12.523438 L 13.019531 12.910156 L 13.113281 13.453125 L 12.625 13.195312 L 12.140625 13.453125 L 12.234375 12.910156 L 11.839844 12.523438 L 12.382812 12.445312 L 12.625 11.949219 " fill-opacity="1" fill-rule="nonzero"/><path fill="#ffffff" d="M 12.625 8.8125 L 12.871094 9.304688 L 13.414062 9.386719 L 13.019531 9.769531 L 13.113281 10.3125 L 12.625 10.054688 L 12.140625 10.3125 L 12.234375 9.769531 L 11.839844 9.386719 L 12.382812 9.304688 L 12.625 8.8125 " fill-opacity="1" fill-rule="nonzero"/><path fill="#ffffff" d="M 12.625 5.671875 L 12.871094 6.164062 L 13.414062 6.246094 L 13.019531 6.628906 L 13.113281 7.171875 L 12.625 6.917969 L 12.140625 7.171875 L 12.234375 6.628906 L 11.839844 6.246094 L 12.382812 6.164062 L 12.625 5.671875 " fill-opacity="1" fill-rule="nonzero"/><path fill="#ffffff" d="M 12.625 2.53125 L 12.871094 3.027344 L 13.414062 3.105469 L 13.019531 3.492188 L 13.113281 4.035156 L 12.625 3.777344 L 12.140625 4.035156 L 12.234375 3.492188 L 11.839844 3.105469 L 12.382812 3.027344 L 12.625 2.53125 " fill-opacity="1" fill-rule="nonzero"/><path fill="#ffffff" d="M 14.574219 13.453125 L 14.816406 13.945312 L 15.359375 14.027344 L 14.964844 14.410156 L 15.058594 14.953125 L 14.574219 14.699219 L 14.085938 14.953125 L 14.179688 14.410156 L 13.785156 14.027344 L 14.328125 13.945312 L 14.574219 13.453125 " fill-opacity="1" fill-rule="nonzero"/><path fill="#ffffff" d="M 14.574219 10.3125 L 14.816406 10.808594 L 15.359375 10.886719 L 14.964844 11.273438 L 15.058594 11.816406 L 14.574219 11.558594 L 14.085938 11.816406 L 14.179688 11.273438 L 13.785156 10.886719 L 14.328125 10.808594 L 14.574219 10.3125 " fill-opacity="1" fill-rule="nonzero"/><path fill="#ffffff" d="M 14.574219 7.171875 L 14.816406 7.667969 L 15.359375 7.746094 L 14.964844 8.132812 L 15.058594 8.675781 L 14.574219 8.417969 L 14.085938 8.675781 L 14.179688 8.132812 L 13.785156 7.746094 L 14.328125 7.667969 L 14.574219 7.171875 " fill-opacity="1" fill-rule="nonzero"/><path fill="#ffffff" d="M 14.574219 4.035156 L 14.816406 4.527344 L 15.359375 4.609375 L 14.964844 4.992188 L 15.058594 5.535156 L 14.574219 5.28125 L 14.085938 5.535156 L 14.179688 4.992188 L 13.785156 4.609375 L 14.328125 4.527344 L 14.574219 4.035156 " fill-opacity="1" fill-rule="nonzero"/><g clip-path="url(#e6bf77d936)"><path fill="#ffffff" d="M 14.574219 0.894531 L 14.816406 1.390625 L 15.359375 1.46875 L 14.964844 1.851562 L 15.058594 2.398438 L 14.574219 2.140625 L 14.085938 2.398438 L 14.179688 1.851562 L 13.785156 1.46875 L 14.328125 1.390625 L 14.574219 0.894531 " fill-opacity="1" fill-rule="nonzero"/></g></svg>